<svg viewBox="0 0 128 96" xmlns="http://www.w3.org/2000/svg" shape-rendering="crispEdges">
  <rect x="48" y="0" width="64" height="8" fill="#3f2a06"/>
  <rect x="24" y="8" width="24" height="8" fill="#3f2a06"/>
  <rect x="48" y="8" width="56" height="8" fill="#fffbd9"/>
  <rect x="104" y="8" width="16" height="8" fill="#3f2a06"/>
  <rect x="8" y="16" width="16" height="8" fill="#3f2a06"/>
  <rect x="24" y="16" width="32" height="8" fill="#fffbd9"/>
  <rect x="56" y="16" width="48" height="8" fill="#fdf0a4"/>
  <rect x="104" y="16" width="16" height="8" fill="#fffbd9"/>
  <rect x="120" y="16" width="8" height="8" fill="#3f2a06"/>
  <rect x="0" y="24" width="8" height="8" fill="#3f2a06"/>
  <rect x="8" y="24" width="16" height="8" fill="#fffbd9"/>
  <rect x="24" y="24" width="48" height="8" fill="#fdf0a4"/>
  <rect x="72" y="24" width="40" height="8" fill="#fbdf5a"/>
  <rect x="112" y="24" width="8" height="8" fill="#fffbd9"/>
  <rect x="120" y="24" width="8" height="8" fill="#3f2a06"/>
  <rect x="0" y="32" width="8" height="8" fill="#3f2a06"/>
  <rect x="8" y="32" width="8" height="8" fill="#fffbd9"/>
  <rect x="16" y="32" width="8" height="8" fill="#fdf0a4"/>
  <rect x="24" y="32" width="72" height="8" fill="#fbdf5a"/>
  <rect x="96" y="32" width="16" height="8" fill="#f7c831"/>
  <rect x="112" y="32" width="16" height="8" fill="#3f2a06"/>
  <rect x="0" y="40" width="8" height="8" fill="#3f2a06"/>
  <rect x="8" y="40" width="8" height="8" fill="#fdf0a4"/>
  <rect x="16" y="40" width="16" height="8" fill="#fbdf5a"/>
  <rect x="32" y="40" width="80" height="8" fill="#f7c831"/>
  <rect x="112" y="40" width="16" height="8" fill="#3f2a06"/>
  <rect x="0" y="48" width="8" height="8" fill="#3f2a06"/>
  <rect x="8" y="48" width="8" height="8" fill="#fbdf5a"/>
  <rect x="16" y="48" width="88" height="8" fill="#f7c831"/>
  <rect x="104" y="48" width="16" height="8" fill="#e8a41c"/>
  <rect x="120" y="48" width="8" height="8" fill="#3f2a06"/>
  <rect x="0" y="56" width="8" height="8" fill="#3f2a06"/>
  <rect x="8" y="56" width="88" height="8" fill="#f7c831"/>
  <rect x="96" y="56" width="16" height="8" fill="#e8a41c"/>
  <rect x="112" y="56" width="8" height="8" fill="#c47c08"/>
  <rect x="120" y="56" width="8" height="8" fill="#3f2a06"/>
  <rect x="0" y="64" width="8" height="8" fill="#3f2a06"/>
  <rect x="8" y="64" width="72" height="8" fill="#f7c831"/>
  <rect x="80" y="64" width="24" height="8" fill="#e8a41c"/>
  <rect x="104" y="64" width="16" height="8" fill="#c47c08"/>
  <rect x="120" y="64" width="8" height="8" fill="#3f2a06"/>
  <rect x="8" y="72" width="8" height="8" fill="#3f2a06"/>
  <rect x="16" y="72" width="40" height="8" fill="#f7c831"/>
  <rect x="56" y="72" width="32" height="8" fill="#e8a41c"/>
  <rect x="88" y="72" width="24" height="8" fill="#c47c08"/>
  <rect x="112" y="72" width="8" height="8" fill="#3f2a06"/>
  <rect x="16" y="80" width="24" height="8" fill="#3f2a06"/>
  <rect x="40" y="80" width="32" height="8" fill="#e8a41c"/>
  <rect x="72" y="80" width="24" height="8" fill="#c47c08"/>
  <rect x="96" y="80" width="16" height="8" fill="#3f2a06"/>
  <rect x="32" y="88" width="64" height="8" fill="#3f2a06"/>
</svg>
